<svg width="14" height="14" viewBox="0 0 14 14" fill="none" xmlns="http://www.w3.org/2000/svg">
<g clip-path="url(#clip0_0_59)">
<path d="M8.40593 7.97027C8.01986 8.40943 7.54993 8.77058 7.02119 9.03108V10.5311C7.02119 10.6637 6.96852 10.7909 6.87475 10.8846C6.78098 10.9784 6.6538 11.0311 6.52119 11.0311H3.52119C3.38859 11.0311 3.26141 10.9784 3.16764 10.8846C3.07387 10.7909 3.02119 10.6637 3.02119 10.5311V9.03108C2.30164 8.67405 1.69077 8.13094 1.25199 7.45811C0.813216 6.78528 0.562532 6.00727 0.525967 5.20485C0.489402 4.40242 0.668287 3.60484 1.04405 2.89489C1.41982 2.18495 1.97876 1.58852 2.66286 1.16754C3.34696 0.746553 4.13128 0.516354 4.93439 0.50084C5.6044 0.487896 6.26711 0.62477 6.87475 0.899421" fill="#B7B4B8"/>
<path d="M8.40593 7.97027C8.01986 8.40943 7.54993 8.77058 7.02119 9.03108V10.5311C7.02119 10.6637 6.96852 10.7909 6.87475 10.8846C6.78098 10.9784 6.6538 11.0311 6.52119 11.0311H3.52119C3.38859 11.0311 3.26141 10.9784 3.16764 10.8846C3.07387 10.7909 3.02119 10.6637 3.02119 10.5311V9.03108C2.30164 8.67405 1.69077 8.13094 1.25199 7.45811C0.813216 6.78528 0.562532 6.00727 0.525967 5.20485C0.489402 4.40242 0.668287 3.60484 1.04405 2.89489C1.41982 2.18495 1.97876 1.58852 2.66286 1.16754C3.34696 0.746553 4.13128 0.516354 4.93439 0.50084C5.6044 0.487896 6.26711 0.62477 6.87475 0.899421" stroke="black" stroke-linecap="round" stroke-linejoin="round"/>
<path d="M3.02118 13.5H7.02118H3.02118Z" fill="#B7B4B8"/>
<path d="M3.02118 13.5H7.02118" stroke="black" stroke-linecap="round" stroke-linejoin="round"/>
<path d="M7.39467 3.93395C7.04374 3.8729 7.04374 3.36912 7.39467 3.30807C8.66602 3.08689 9.67721 2.11853 9.95316 0.857921L9.97432 0.761292C10.0502 0.414459 10.5441 0.4123 10.623 0.758456L10.6487 0.871066C10.9349 2.12572 11.9463 3.08591 13.2142 3.30647C13.5669 3.36784 13.5669 3.87418 13.2142 3.93554C11.9463 4.15611 10.9349 5.1163 10.6487 6.37095L10.623 6.48356C10.5441 6.82972 10.0502 6.82756 9.97432 6.48073L9.95316 6.3841C9.67721 5.1235 8.66602 4.15513 7.39467 3.93395Z" fill="#B7B4B8" stroke="black" stroke-linecap="round" stroke-linejoin="round"/>
</g>
<defs>
<clipPath id="clip0_0_59">
<rect width="14" height="14" fill="white"/>
</clipPath>
</defs>
</svg>
