<svg width="718" height="563" viewBox="0 0 718 563" fill="none" xmlns="http://www.w3.org/2000/svg">
<path d="M520.196 4.94678C520.817 4.27359 521.149 3.91838 521.412 3.67565C521.476 3.61603 521.523 3.57639 521.554 3.5512C521.594 3.54529 521.655 3.53788 521.742 3.53092C522.099 3.50254 522.585 3.5 523.501 3.5H682C690.584 3.5 696.67 3.50743 701.285 4.1278C705.798 4.73463 708.376 5.86961 710.253 7.74696C712.13 9.62429 713.265 12.2019 713.872 16.7155C714.493 21.3297 714.5 27.4158 714.5 36V506.94C714.5 518.726 714.493 527.215 713.626 533.686C712.772 540.056 711.143 543.95 708.272 546.848C705.4 549.745 701.521 551.41 695.159 552.321C688.696 553.247 680.207 553.331 668.422 553.438L8.06488 559.427L520.196 4.94678ZM521.605 3.51312C521.605 3.51322 521.603 3.51455 521.6 3.51674C521.603 3.51413 521.605 3.51302 521.605 3.51312ZM521.498 3.56107C521.494 3.56223 521.492 3.56274 521.492 3.56271C521.492 3.56268 521.494 3.5621 521.498 3.56107Z" fill="#555162" fill-opacity="0.85" stroke="black" stroke-width="7"/>
</svg>
