<svg width="26" height="26" viewBox="0 0 26 26" fill="none" xmlns="http://www.w3.org/2000/svg">
<path d="M21.6667 10.8333L22.3738 11.5404L23.0809 10.8333L22.3738 10.1262L21.6667 10.8333ZM3.33335 19.5C3.33335 20.0523 3.78107 20.5 4.33335 20.5C4.88564 20.5 5.33335 20.0523 5.33335 19.5L3.33335 19.5ZM16.9571 16.9571L22.3738 11.5404L20.9596 10.1262L15.5429 15.5429L16.9571 16.9571ZM22.3738 10.1262L16.9571 4.70956L15.5429 6.12377L20.9596 11.5404L22.3738 10.1262ZM21.6667 9.83333L10.3334 9.83333L10.3334 11.8333L21.6667 11.8333L21.6667 9.83333ZM3.33335 16.8333L3.33335 19.5L5.33335 19.5L5.33335 16.8333L3.33335 16.8333ZM10.3334 9.83333C6.46736 9.83333 3.33335 12.9673 3.33335 16.8333L5.33335 16.8333C5.33335 14.0719 7.57193 11.8333 10.3334 11.8333L10.3334 9.83333Z" fill="black" fill-opacity="0.63"/>
</svg>
