<svg width="24" height="22" viewBox="0 0 24 22" fill="none" xmlns="http://www.w3.org/2000/svg">
<path d="M6.37297 10L10.6714 1C11.5264 1 12.3463 1.31607 12.9509 1.87868C13.5555 2.44129 13.8951 3.20435 13.8951 4V8H19.9773C20.2889 7.99672 20.5975 8.0565 20.8817 8.17522C21.1659 8.29393 21.419 8.46873 21.6235 8.68751C21.8279 8.90629 21.9788 9.16382 22.0656 9.44225C22.1525 9.72068 22.1733 10.0134 22.1265 10.3L20.6436 19.3C20.5659 19.7769 20.3056 20.2116 19.9106 20.524C19.5157 20.8364 19.0127 21.0055 18.4944 21H6.37297M6.37297 10V21M6.37297 10H3.14919C2.57919 10 2.03253 10.2107 1.62948 10.5858C1.22643 10.9609 1 11.4696 1 12V19C1 19.5304 1.22643 20.0391 1.62948 20.4142C2.03253 20.7893 2.57919 21 3.14919 21H6.37297" stroke="black" stroke-opacity="0.63" stroke-width="2" stroke-linecap="round" stroke-linejoin="round"/>
</svg>
